# xmcd CD database file
#
# Track frame offsets:
#	150
#	29966
#	55663
#	77839
#	111347
#	133311
#	168371
#	199863
#	220375
#	251030
#
# Disc length: 3658 seconds
#
# Revision: 0
# Processed by: cddbd v1.5.2PL0 Copyright (c) Steve Scherf et al.
# Submitted via: CDex 1.79
#
DISCID=9b0e480a
DTITLE=Bill Evans  - The SESJUN Radio Shows-CD1
DYEAR=1900
DGENRE=Jazz
TTITLE0=Up With The Lark
TTITLE1=Time Remembered
TTITLE2=TTT (Twelve Tone Tune)
TTITLE3=The Two Lonely People
TTITLE4=Some Other Time
TTITLE5=Sugar Plum
TTITLE6=Sareen Jurer
TTITLE7=Morning Glory
TTITLE8=TTTT (Twelve Tone Tune Two)
TTITLE9=Blue Serge
EXTD=
EXTT0=
EXTT1=
EXTT2=
EXTT3=
EXTT4=
EXTT5=
EXTT6=
EXTT7=
EXTT8=
EXTT9=
PLAYORDER=
